<svg xmlns="http://www.w3.org/2000/svg" width="64" height="64" viewBox="0 0 64 64">
  <rect width="64" height="64" rx="12" fill="#434930"/>
  <path d="M32 10 C18 10 10 20 10 30 C10 44 32 58 32 58 C32 58 54 44 54 30 C54 20 46 10 32 10 Z" fill="#6b6e43"/>
  <path d="M32 16 C22 16 16 23 16 30 C16 40 32 52 32 52 C32 52 48 40 48 30 C48 23 42 16 32 16 Z" fill="#a3a479"/>
  <line x1="32" y1="18" x2="32" y2="48" stroke="#434930" stroke-width="1.5" stroke-linecap="round"/>
  <line x1="32" y1="26" x2="24" y2="32" stroke="#434930" stroke-width="1" stroke-linecap="round"/>
  <line x1="32" y1="26" x2="40" y2="32" stroke="#434930" stroke-width="1" stroke-linecap="round"/>
  <line x1="32" y1="34" x2="26" y2="40" stroke="#434930" stroke-width="1" stroke-linecap="round"/>
  <line x1="32" y1="34" x2="38" y2="40" stroke="#434930" stroke-width="1" stroke-linecap="round"/>
</svg>
